<svg width="135" height="44" viewBox="0 0 135 44" fill="none" xmlns="http://www.w3.org/2000/svg">
<rect width="134.716" height="43.984" rx="8" fill="white"/>
<path d="M103.484 23.376C103.484 22.48 103.66 21.6853 104.012 20.992C104.374 20.2987 104.865 19.7653 105.484 19.392C106.102 19.0187 106.79 18.832 107.548 18.832C108.124 18.832 108.673 18.96 109.196 19.216C109.718 19.4613 110.134 19.792 110.444 20.208V16H112.716V27.84H110.444V26.528C110.166 26.9653 109.777 27.3173 109.276 27.584C108.774 27.8507 108.193 27.984 107.532 27.984C106.785 27.984 106.102 27.792 105.484 27.408C104.865 27.024 104.374 26.4853 104.012 25.792C103.66 25.088 103.484 24.2827 103.484 23.376ZM110.46 23.408C110.46 22.864 110.353 22.4 110.14 22.016C109.926 21.6213 109.638 21.3227 109.276 21.12C108.913 20.9067 108.524 20.8 108.108 20.8C107.692 20.8 107.308 20.9013 106.956 21.104C106.604 21.3067 106.316 21.6053 106.092 22C105.878 22.384 105.772 22.8427 105.772 23.376C105.772 23.9093 105.878 24.3787 106.092 24.784C106.316 25.1787 106.604 25.4827 106.956 25.696C107.318 25.9093 107.702 26.016 108.108 26.016C108.524 26.016 108.913 25.9147 109.276 25.712C109.638 25.4987 109.926 25.2 110.14 24.816C110.353 24.4213 110.46 23.952 110.46 23.408Z" fill="url(#paint0_linear_374_3975)"/>
<path d="M102.425 23.216C102.425 23.536 102.403 23.824 102.361 24.08H95.8806C95.934 24.72 96.158 25.2214 96.5526 25.584C96.9473 25.9467 97.4326 26.128 98.0086 26.128C98.8406 26.128 99.4326 25.7707 99.7846 25.056H102.201C101.945 25.9094 101.454 26.6134 100.729 27.168C100.003 27.712 99.1126 27.984 98.0566 27.984C97.2033 27.984 96.4353 27.7974 95.7526 27.424C95.0806 27.04 94.5526 26.5014 94.1686 25.808C93.7953 25.1147 93.6086 24.3147 93.6086 23.408C93.6086 22.4907 93.7953 21.6854 94.1686 20.992C94.542 20.2987 95.0646 19.7654 95.7366 19.392C96.4086 19.0187 97.182 18.832 98.0566 18.832C98.8993 18.832 99.6513 19.0134 100.313 19.376C100.985 19.7387 101.502 20.256 101.865 20.928C102.238 21.5894 102.425 22.352 102.425 23.216ZM100.105 22.576C100.094 22 99.886 21.5414 99.4806 21.2C99.0753 20.848 98.5793 20.672 97.9926 20.672C97.438 20.672 96.9686 20.8427 96.5846 21.184C96.2113 21.5147 95.982 21.9787 95.8966 22.576H100.105Z" fill="url(#paint1_linear_374_3975)"/>
<path d="M90.5896 20.8161V25.1041C90.5896 25.4027 90.6589 25.6214 90.7976 25.7601C90.9469 25.8881 91.1923 25.9521 91.5336 25.9521H92.5736V27.8401H91.1656C89.2776 27.8401 88.3336 26.9227 88.3336 25.0881V20.8161H87.2776V18.9761H88.3336V16.7841H90.5896V18.9761H92.5736V20.8161H90.5896Z" fill="url(#paint2_linear_374_3975)"/>
<path d="M83.7527 20.352C84.0407 19.8827 84.414 19.5147 84.8727 19.248C85.342 18.9814 85.8754 18.848 86.4727 18.848V21.2H85.8807C85.1767 21.2 84.6434 21.3654 84.2807 21.696C83.9287 22.0267 83.7527 22.6027 83.7527 23.424V27.84H81.5127V18.976H83.7527V20.352Z" fill="url(#paint3_linear_374_3975)"/>
<path d="M70.093 23.376C70.093 22.48 70.269 21.6854 70.621 20.992C70.9837 20.2987 71.469 19.7654 72.077 19.392C72.6957 19.0187 73.3837 18.832 74.141 18.832C74.8024 18.832 75.3784 18.9654 75.869 19.232C76.3704 19.4987 76.7704 19.8347 77.069 20.24V18.976H79.325V27.84H77.069V26.544C76.781 26.96 76.381 27.3067 75.869 27.584C75.3677 27.8507 74.7864 27.984 74.125 27.984C73.3784 27.984 72.6957 27.792 72.077 27.408C71.469 27.024 70.9837 26.4854 70.621 25.792C70.269 25.088 70.093 24.2827 70.093 23.376ZM77.069 23.408C77.069 22.864 76.9624 22.4 76.749 22.016C76.5357 21.6214 76.2477 21.3227 75.885 21.12C75.5224 20.9067 75.133 20.8 74.717 20.8C74.301 20.8 73.917 20.9014 73.565 21.104C73.213 21.3067 72.925 21.6054 72.701 22C72.4877 22.384 72.381 22.8427 72.381 23.376C72.381 23.9094 72.4877 24.3787 72.701 24.784C72.925 25.1787 73.213 25.4827 73.565 25.696C73.9277 25.9094 74.3117 26.016 74.717 26.016C75.133 26.016 75.5224 25.9147 75.885 25.712C76.2477 25.4987 76.5357 25.2 76.749 24.816C76.9624 24.4214 77.069 23.952 77.069 23.408Z" fill="url(#paint4_linear_374_3975)"/>
<path d="M67.074 20.8161V25.1041C67.074 25.4027 67.1433 25.6214 67.282 25.7601C67.4313 25.8881 67.6766 25.9521 68.018 25.9521H69.058V27.8401H67.65C65.762 27.8401 64.818 26.9227 64.818 25.0881V20.8161H63.762V18.9761H64.818V16.7841H67.074V18.9761H69.058V20.8161H67.074Z" fill="url(#paint5_linear_374_3975)"/>
<path d="M58.572 27.952C57.7933 27.952 57.0893 27.8186 56.46 27.552C55.8413 27.2853 55.3506 26.9013 54.988 26.4C54.6253 25.8986 54.4386 25.3066 54.428 24.624H56.828C56.86 25.0826 57.02 25.4453 57.308 25.712C57.6066 25.9786 58.012 26.112 58.524 26.112C59.0466 26.112 59.4573 25.9893 59.756 25.744C60.0546 25.488 60.204 25.1573 60.204 24.752C60.204 24.4213 60.1026 24.1493 59.9 23.936C59.6973 23.7226 59.4413 23.5573 59.132 23.44C58.8333 23.312 58.4173 23.1733 57.884 23.024C57.1586 22.8106 56.5666 22.6026 56.108 22.4C55.66 22.1866 55.2706 21.872 54.94 21.456C54.62 21.0293 54.46 20.464 54.46 19.76C54.46 19.0986 54.6253 18.5226 54.956 18.032C55.2866 17.5413 55.7506 17.168 56.348 16.912C56.9453 16.6453 57.628 16.512 58.396 16.512C59.548 16.512 60.4813 16.7946 61.196 17.36C61.9213 17.9146 62.3213 18.6933 62.396 19.696H59.932C59.9106 19.312 59.7453 18.9973 59.436 18.752C59.1373 18.496 58.7373 18.368 58.236 18.368C57.7986 18.368 57.4466 18.48 57.18 18.704C56.924 18.928 56.796 19.2533 56.796 19.68C56.796 19.9786 56.892 20.2293 57.084 20.432C57.2866 20.624 57.532 20.784 57.82 20.912C58.1186 21.0293 58.5346 21.168 59.068 21.328C59.7933 21.5413 60.3853 21.7546 60.844 21.968C61.3026 22.1813 61.6973 22.5013 62.028 22.928C62.3586 23.3546 62.524 23.9146 62.524 24.608C62.524 25.2053 62.3693 25.76 62.06 26.272C61.7506 26.784 61.2973 27.1946 60.7 27.504C60.1026 27.8026 59.3933 27.952 58.572 27.952Z" fill="url(#paint6_linear_374_3975)"/>
<path d="M47.3083 20.8161V25.1041C47.3083 25.4027 47.3777 25.6214 47.5163 25.7601C47.6657 25.8881 47.911 25.9521 48.2523 25.9521H49.2923V27.8401H47.8843C45.9963 27.8401 45.0523 26.9227 45.0523 25.0881V20.8161H43.9963V18.9761H45.0523V16.7841H47.3083V18.9761H49.2923V20.8161H47.3083Z" fill="url(#paint7_linear_374_3975)"/>
<path d="M43.0653 23.216C43.0653 23.536 43.0439 23.824 43.0013 24.08H36.5213C36.5746 24.72 36.7986 25.2214 37.1933 25.584C37.5879 25.9467 38.0733 26.128 38.6493 26.128C39.4813 26.128 40.0733 25.7707 40.4253 25.056H42.8413C42.5853 25.9094 42.0946 26.6134 41.3693 27.168C40.6439 27.712 39.7533 27.984 38.6973 27.984C37.8439 27.984 37.0759 27.7974 36.3933 27.424C35.7213 27.04 35.1933 26.5014 34.8093 25.808C34.4359 25.1147 34.2493 24.3147 34.2493 23.408C34.2493 22.4907 34.4359 21.6854 34.8093 20.992C35.1826 20.2987 35.7053 19.7654 36.3773 19.392C37.0493 19.0187 37.8226 18.832 38.6973 18.832C39.5399 18.832 40.2919 19.0134 40.9533 19.376C41.6253 19.7387 42.1426 20.256 42.5053 20.928C42.8786 21.5894 43.0653 22.352 43.0653 23.216ZM40.7453 22.576C40.7346 22 40.5266 21.5414 40.1213 21.2C39.7159 20.848 39.2199 20.672 38.6333 20.672C38.0786 20.672 37.6093 20.8427 37.2253 21.184C36.8519 21.5147 36.6226 21.9787 36.5373 22.576H40.7453Z" fill="url(#paint8_linear_374_3975)"/>
<path d="M30.32 20.032C30.064 19.5626 29.712 19.2053 29.264 18.96C28.816 18.7146 28.2933 18.592 27.696 18.592C27.0347 18.592 26.448 18.7413 25.936 19.04C25.424 19.3386 25.024 19.7653 24.736 20.32C24.448 20.8746 24.304 21.5146 24.304 22.24C24.304 22.9866 24.448 23.6373 24.736 24.192C25.0347 24.7466 25.4453 25.1733 25.968 25.472C26.4907 25.7706 27.0987 25.92 27.792 25.92C28.6453 25.92 29.344 25.696 29.888 25.248C30.432 24.7893 30.7893 24.1546 30.96 23.344H27.12V21.632H33.168V23.584C33.0187 24.3626 32.6987 25.0826 32.208 25.744C31.7173 26.4053 31.0827 26.9386 30.304 27.344C29.536 27.7386 28.672 27.936 27.712 27.936C26.6347 27.936 25.6587 27.696 24.784 27.216C23.92 26.7253 23.2373 26.048 22.736 25.184C22.2453 24.32 22 23.3386 22 22.24C22 21.1413 22.2453 20.16 22.736 19.296C23.2373 18.4213 23.92 17.744 24.784 17.264C25.6587 16.7733 26.6293 16.528 27.696 16.528C28.9547 16.528 30.048 16.8373 30.976 17.456C31.904 18.064 32.544 18.9226 32.896 20.032H30.32Z" fill="url(#paint9_linear_374_3975)"/>
<defs>
<linearGradient id="paint0_linear_374_3975" x1="21.44" y1="21.84" x2="114.44" y2="21.84" gradientUnits="userSpaceOnUse">
<stop stop-color="#0056BF"/>
<stop offset="1" stop-color="#00ACFF"/>
</linearGradient>
<linearGradient id="paint1_linear_374_3975" x1="21.44" y1="21.84" x2="114.44" y2="21.84" gradientUnits="userSpaceOnUse">
<stop stop-color="#0056BF"/>
<stop offset="1" stop-color="#00ACFF"/>
</linearGradient>
<linearGradient id="paint2_linear_374_3975" x1="21.4401" y1="21.8401" x2="114.44" y2="21.8401" gradientUnits="userSpaceOnUse">
<stop stop-color="#0056BF"/>
<stop offset="1" stop-color="#00ACFF"/>
</linearGradient>
<linearGradient id="paint3_linear_374_3975" x1="21.4399" y1="21.84" x2="114.44" y2="21.84" gradientUnits="userSpaceOnUse">
<stop stop-color="#0056BF"/>
<stop offset="1" stop-color="#00ACFF"/>
</linearGradient>
<linearGradient id="paint4_linear_374_3975" x1="21.44" y1="21.84" x2="114.44" y2="21.84" gradientUnits="userSpaceOnUse">
<stop stop-color="#0056BF"/>
<stop offset="1" stop-color="#00ACFF"/>
</linearGradient>
<linearGradient id="paint5_linear_374_3975" x1="21.4401" y1="21.8401" x2="114.44" y2="21.8401" gradientUnits="userSpaceOnUse">
<stop stop-color="#0056BF"/>
<stop offset="1" stop-color="#00ACFF"/>
</linearGradient>
<linearGradient id="paint6_linear_374_3975" x1="21.4401" y1="21.84" x2="114.44" y2="21.84" gradientUnits="userSpaceOnUse">
<stop stop-color="#0056BF"/>
<stop offset="1" stop-color="#00ACFF"/>
</linearGradient>
<linearGradient id="paint7_linear_374_3975" x1="21.4401" y1="21.8401" x2="114.44" y2="21.8401" gradientUnits="userSpaceOnUse">
<stop stop-color="#0056BF"/>
<stop offset="1" stop-color="#00ACFF"/>
</linearGradient>
<linearGradient id="paint8_linear_374_3975" x1="21.44" y1="21.84" x2="114.44" y2="21.84" gradientUnits="userSpaceOnUse">
<stop stop-color="#0056BF"/>
<stop offset="1" stop-color="#00ACFF"/>
</linearGradient>
<linearGradient id="paint9_linear_374_3975" x1="21.44" y1="21.84" x2="114.44" y2="21.84" gradientUnits="userSpaceOnUse">
<stop stop-color="#0056BF"/>
<stop offset="1" stop-color="#00ACFF"/>
</linearGradient>
</defs>
</svg>
